Rokkitt-Regular.ufo
<glyph name="plus" format="1">
  <advance width="1047"/>
  <unicode hex="002B"/>
  <outline>
    <contour>
      <point x="461" y="994" type="line"/>
      <point x="461" y="602" type="line"/>
      <point x="57" y="602" type="line"/>
      <point x="57" y="485" type="line"/>
      <point x="461" y="485" type="line"/>
      <point x="461" y="93" type="line"/>
      <point x="585" y="93" type="line"/>
      <point x="585" y="485" type="line"/>
      <point x="990" y="485" type="line"/>
      <point x="990" y="602" type="line"/>
      <point x="585" y="602" type="line"/>
      <point x="585" y="994" type="line"/>
    </contour>
  </outline>
</glyph>
<glyph name="comma" format="1">
  <advance width="414"/>
  <unicode hex="002C"/>
  <outline>
    <contour>
      <point x="86" y="211" type="line"/>
      <point x="86" y="0" type="line"/>
      <point x="207" y="0" type="line"/>
      <point x="207" y="-100"/>
      <point x="173" y="-132"/>
      <point x="86" y="-150" type="curve"/>
      <point x="86" y="-237" type="line"/>
      <point x="92" y="-237" type="line" smooth="yes"/>
      <point x="245" y="-237"/>
      <point x="314" y="-162"/>
      <point x="313" y="0" type="curve"/>
      <point x="313" y="211" type="line"/>
    </contour>
  </outline>
</glyph>
<glyph name="zero" format="1">
  <advance width="1006"/>
  <unicode hex="0030"/>
  <outline>
    <contour>
      <point x="87" y="577" type="curve" smooth="yes"/>
      <point x="87" y="252"/>
      <point x="197" y="-18"/>
      <point x="502" y="-18" type="curve" smooth="yes"/>
      <point x="808" y="-18"/>
      <point x="916" y="230"/>
      <point x="917" y="577" type="curve" smooth="yes"/>
      <point x="917" y="902"/>
      <point x="807" y="1171"/>
      <point x="502" y="1171" type="curve" smooth="yes"/>
      <point x="195" y="1171"/>
      <point x="87" y="923"/>
    </contour>
    <contour>
      <point x="764" y="575" type="curve" smooth="yes"/>
      <point x="764" y="312"/>
      <point x="725" y="101"/>
      <point x="498" y="101" type="curve" smooth="yes"/>
      <point x="288" y="105"/>
      <point x="241" y="290"/>
      <point x="241" y="576" type="curve" smooth="yes"/>
      <point x="241" y="832"/>
      <point x="298" y="1051"/>
      <point x="501" y="1051" type="curve" smooth="yes"/>
      <point x="723" y="1051"/>
      <point x="764" y="835"/>
    </contour>
  </outline>
</glyph>
<glyph name="one" format="1">
  <advance width="1006"/>
  <unicode hex="0031"/>
  <outline>
    <contour>
      <point x="308" y="1153" type="line"/>
      <point x="308" y="1037" type="line"/>
      <point x="482" y="1037" type="line"/>
      <point x="482" y="116" type="line"/>
      <point x="316" y="116" type="line"/>
      <point x="316" y="0" type="line"/>
      <point x="785" y="0" type="line"/>
      <point x="785" y="116" type="line"/>
      <point x="631" y="116" type="line"/>
      <point x="631" y="1153" type="line"/>
    </contour>
  </outline>
</glyph>
<glyph name="four" format="1">
  <advance width="1006"/>
  <unicode hex="0034"/>
  <outline>
    <contour>
      <point x="596" y="1152" type="line"/>
      <point x="69" y="426" type="line"/>
      <point x="86" y="315" type="line"/>
      <point x="592" y="315" type="line"/>
      <point x="592" y="116" type="line"/>
      <point x="407" y="116" type="line"/>
      <point x="407" y="0" type="line"/>
      <point x="895" y="0" type="line"/>
      <point x="895" y="116" type="line"/>
      <point x="734" y="116" type="line"/>
      <point x="734" y="315" type="line"/>
      <point x="924" y="315" type="line"/>
      <point x="924" y="436" type="line"/>
      <point x="734" y="436" type="line"/>
      <point x="734" y="1152" type="line"/>
    </contour>
    <contour>
      <point x="592" y="436" type="line"/>
      <point x="230" y="436" type="line"/>
      <point x="592" y="946" type="line"/>
    </contour>
  </outline>
</glyph>
<glyph name="seven" format="1">
  <advance width="1006"/>
  <unicode hex="0037"/>
  <outline>
    <contour>
      <point x="144" y="1152" type="line"/>
      <point x="144" y="859" type="line"/>
      <point x="281" y="859" type="line"/>
      <point x="281" y="1035" type="line"/>
      <point x="751" y="1035" type="line"/>
      <point x="527" y="622"/>
      <point x="336" y="0"/>
      <point x="336" y="0" type="curve"/>
      <point x="489" y="0" type="line"/>
      <point x="489" y="0"/>
      <point x="673" y="592"/>
      <point x="902" y="1035" type="curve"/>
      <point x="902" y="1152" type="line"/>
    </contour>
  </outline>
</glyph>
<glyph name="greater" format="1">
  <advance width="1145"/>
  <unicode hex="003E"/>
  <outline>
    <contour>
      <point x="133" y="1104" type="line"/>
      <point x="821" y="731" type="line"/>
      <point x="133" y="362" type="line"/>
      <point x="133" y="225" type="line"/>
      <point x="1012" y="696" type="line"/>
      <point x="1012" y="768" type="line"/>
      <point x="133" y="1241" type="line"/>
    </contour>
  </outline>
</glyph>
<glyph name="D" format="1">
  <advance width="1315"/>
  <unicode hex="0044"/>
  <outline>
    <contour>
      <point x="280" y="1153" type="line"/>
      <point x="280" y="1036" type="line"/>
      <point x="625" y="1036" type="line" smooth="yes"/>
      <point x="913" y="1036"/>
      <point x="1050" y="865"/>
      <point x="1050" y="581" type="curve" smooth="yes"/>
      <point x="1050" y="308"/>
      <point x="916" y="116"/>
      <point x="641" y="116" type="curve" smooth="yes"/>
      <point x="280" y="116" type="line"/>
      <point x="280" y="0" type="line"/>
      <point x="615" y="0" type="line" smooth="yes"/>
      <point x="1015" y="0"/>
      <point x="1215" y="199"/>
      <point x="1215" y="596" type="curve" smooth="yes"/>
      <point x="1215" y="963"/>
      <point x="992" y="1153"/>
      <point x="629" y="1153" type="curve" smooth="yes"/>
    </contour>
    <component base="uc_main_stem" xOffset="-39"/>
    <contour>
      <point x="316" y="591" type="move" name="mid"/>
    </contour>
    <contour>
      <point x="601" y="1153" type="move" name="top"/>
    </contour>
  </outline>
</glyph>
<glyph name="K" format="1">
  <advance width="1184"/>
  <unicode hex="004B"/>
  <outline>
    <contour>
      <point x="690" y="1153" type="line"/>
      <point x="690" y="1037" type="line"/>
      <point x="826" y="1037" type="line"/>
      <point x="355" y="589" type="line"/>
      <point x="839" y="116" type="line"/>
      <point x="686" y="116" type="line"/>
      <point x="686" y="0" type="line"/>
      <point x="1167" y="0" type="line"/>
      <point x="1167" y="116" type="line"/>
      <point x="1036" y="116" type="line"/>
      <point x="547" y="589" type="line"/>
      <point x="1012" y="1037" type="line"/>
      <point x="1141" y="1037" type="line"/>
      <point x="1141" y="1153" type="line"/>
    </contour>
    <component base="uc_main_stem" xOffset="-39"/>
    <contour>
      <point x="607" y="0" type="move" name="bot"/>
    </contour>
    <contour>
      <point x="617" y="1153" type="move" name="top"/>
    </contour>
  </outline>
</glyph>
<glyph name="N" format="1">
  <advance width="1371"/>
  <unicode hex="004E"/>
  <outline>
    <contour>
      <point x="841" y="1153" type="line"/>
      <point x="841" y="1037" type="line"/>
      <point x="1006" y="1037" type="line"/>
      <point x="1006" y="211" type="line"/>
      <point x="458" y="1153" type="line"/>
      <point x="76" y="1153" type="line"/>
      <point x="76" y="1037" type="line"/>
      <point x="245" y="1037" type="line"/>
      <point x="245" y="116" type="line"/>
      <point x="76" y="116" type="line"/>
      <point x="76" y="0" type="line"/>
      <point x="548" y="0" type="line"/>
      <point x="548" y="116" type="line"/>
      <point x="379" y="116" type="line"/>
      <point x="379" y="997" type="line"/>
      <point x="957" y="0" type="line"/>
      <point x="1140" y="0" type="line"/>
      <point x="1140" y="1037" type="line"/>
      <point x="1313" y="1037" type="line"/>
      <point x="1313" y="1153" type="line"/>
    </contour>
    <contour>
      <point x="717" y="0" type="move" name="bot"/>
    </contour>
    <contour>
      <point x="682" y="1153" type="move" name="top"/>
    </contour>
  </outline>
</glyph>
<glyph name="j" format="1">
  <advance width="517"/>
  <unicode hex="006A"/>
  <outline>
    <contour>
      <point x="54" y="804" type="line"/>
      <point x="54" y="688" type="line"/>
      <point x="248" y="688" type="line"/>
      <point x="248" y="-8" type="line" smooth="yes"/>
      <point x="248" y="-113"/>
      <point x="230" y="-179"/>
      <point x="129" y="-179" type="curve" smooth="yes"/>
      <point x="22" y="-179" type="line"/>
      <point x="22" y="-303" type="line"/>
      <point x="113" y="-303" type="line" smooth="yes"/>
      <point x="334" y="-303"/>
      <point x="396" y="-221"/>
      <point x="396" y="19" type="curve" smooth="yes"/>
      <point x="396" y="804" type="line"/>
    </contour>
    <contour>
      <point x="225" y="1066" type="curve" smooth="yes"/>
      <point x="225" y="1016"/>
      <point x="266" y="979"/>
      <point x="317" y="979" type="curve" smooth="yes"/>
      <point x="368" y="979"/>
      <point x="409" y="1016"/>
      <point x="409" y="1066" type="curve" smooth="yes"/>
      <point x="409" y="1116"/>
      <point x="368" y="1153"/>
      <point x="317" y="1153" type="curve" smooth="yes"/>
      <point x="266" y="1153"/>
      <point x="225" y="1116"/>
    </contour>
  </outline>
</glyph>
<glyph name="w" format="1">
  <advance width="1421"/>
  <unicode hex="0077"/>
  <outline>
    <contour>
      <point x="1047" y="804" type="line"/>
      <point x="1047" y="688" type="line"/>
      <point x="1167" y="688" type="line"/>
      <point x="1000" y="146" type="line"/>
      <point x="809" y="688" type="line"/>
      <point x="914" y="688" type="line"/>
      <point x="914" y="804" type="line"/>
      <point x="516" y="804" type="line"/>
      <point x="516" y="688" type="line"/>
      <point x="621" y="688" type="line"/>
      <point x="434" y="157" type="line"/>
      <point x="267" y="688" type="line"/>
      <point x="377" y="688" type="line"/>
      <point x="377" y="804" type="line"/>
      <point x="-2" y="804" type="line"/>
      <point x="-2" y="688" type="line"/>
      <point x="127" y="688" type="line"/>
      <point x="365" y="0" type="line"/>
      <point x="508" y="0" type="line"/>
      <point x="719" y="621" type="line"/>
      <point x="925" y="0" type="line"/>
      <point x="1067" y="0" type="line"/>
      <point x="1301" y="688" type="line"/>
      <point x="1423" y="688" type="line"/>
      <point x="1423" y="804" type="line"/>
    </contour>
    <contour>
      <point x="718" y="805" type="move" name="top"/>
    </contour>
  </outline>
</glyph>
<glyph name="onequarter" format="1">
  <advance width="1665"/>
  <unicode hex="00BC"/>
  <outline>
    <contour>
      <point x="1156" y="1152" type="line"/>
      <point x="379" y="0" type="line"/>
      <point x="480" y="0" type="line"/>
      <point x="1254" y="1152" type="line"/>
    </contour>
    <contour>
      <point x="118" y="1152" type="line"/>
      <point x="118" y="1058" type="line"/>
      <point x="247" y="1058" type="line"/>
      <point x="247" y="441" type="line"/>
      <point x="124" y="441" type="line"/>
      <point x="124" y="348" type="line"/>
      <point x="467" y="348" type="line"/>
      <point x="467" y="441" type="line"/>
      <point x="353" y="441" type="line"/>
      <point x="353" y="1152" type="line"/>
    </contour>
    <contour>
      <point x="1322" y="804" type="line"/>
      <point x="947" y="329" type="line"/>
      <point x="947" y="254" type="line"/>
      <point x="1319" y="254" type="line"/>
      <point x="1319" y="80" type="line"/>
      <point x="1177" y="80" type="line"/>
      <point x="1177" y="0" type="line"/>
      <point x="1544" y="0" type="line"/>
      <point x="1544" y="80" type="line"/>
      <point x="1424" y="80" type="line"/>
      <point x="1424" y="254" type="line"/>
      <point x="1577" y="254" type="line"/>
      <point x="1577" y="329" type="line"/>
      <point x="1424" y="329" type="line"/>
      <point x="1424" y="804" type="line"/>
    </contour>
    <contour>
      <point x="1319" y="329" type="line"/>
      <point x="1055" y="329" type="line"/>
      <point x="1319" y="678" type="line"/>
    </contour>
  </outline>
</glyph>
<glyph name="Oslash" format="1">
  <advance width="1321"/>
  <unicode hex="00D8"/>
  <outline>
    <contour>
      <point x="193" y="-18" type="line"/>
      <point x="277" y="-77" type="line"/>
      <point x="1253" y="1139" type="line"/>
      <point x="1169" y="1198" type="line"/>
    </contour>
    <component base="O" xOffset="-20" yOffset="25"/>
  </outline>
</glyph>
<glyph name="dotlessi" format="1">
  <advance width="588"/>
  <unicode hex="0131"/>
  <outline>
    <contour>
      <point x="117" y="805" type="line"/>
      <point x="117" y="689" type="line"/>
      <point x="252" y="689" type="line"/>
      <point x="252" y="113" type="line"/>
      <point x="117" y="113" type="line"/>
      <point x="117" y="0" type="line"/>
      <point x="537" y="0" type="line"/>
      <point x="537" y="113" type="line"/>
      <point x="401" y="113" type="line"/>
      <point x="401" y="805" type="line"/>
    </contour>
    <contour>
      <point x="314" y="805" type="move" name="top"/>
    </contour>
  </outline>
</glyph>
<glyph name="OE" format="1">
  <advance width="1920"/>
  <unicode hex="0152"/>
  <outline>
    <contour>
      <point x="688" y="1152" type="line" smooth="yes"/>
      <point x="355" y="1151"/>
      <point x="130" y="911"/>
      <point x="131" y="575" type="curve" smooth="yes"/>
      <point x="130" y="241"/>
      <point x="356" y="0"/>
      <point x="688" y="0" type="curve" smooth="yes"/>
      <point x="1818" y="0" type="line"/>
      <point x="1818" y="328" type="line"/>
      <point x="1689" y="328" type="line"/>
      <point x="1689" y="116" type="line"/>
      <point x="1178" y="116" type="line"/>
      <point x="1178" y="526" type="line"/>
      <point x="1523" y="526" type="line"/>
      <point x="1523" y="410" type="line"/>
      <point x="1624" y="410" type="line"/>
      <point x="1624" y="769" type="line"/>
      <point x="1524" y="769" type="line"/>
      <point x="1524" y="639" type="line"/>
      <point x="1176" y="639" type="line"/>
      <point x="1176" y="1037" type="line"/>
      <point x="1686" y="1037" type="line"/>
      <point x="1686" y="832" type="line"/>
      <point x="1818" y="832" type="line"/>
      <point x="1818" y="1152" type="line"/>
    </contour>
    <contour>
      <point x="1017" y="114" type="line"/>
      <point x="737" y="116" type="line" smooth="yes"/>
      <point x="475" y="118"/>
      <point x="308" y="300"/>
      <point x="309" y="577" type="curve"/>
      <point x="308" y="855"/>
      <point x="463" y="1038"/>
      <point x="728" y="1037" type="curve" smooth="yes"/>
      <point x="1017" y="1036" type="line"/>
    </contour>
  </outline>
</glyph>
<glyph name="quotedblleft" format="1">
  <advance width="720"/>
  <unicode hex="201C"/>
  <outline>
    <contour>
      <point x="415" y="934" type="curve" smooth="yes"/>
      <point x="415" y="723" type="line"/>
      <point x="632" y="723" type="line"/>
      <point x="632" y="934" type="line"/>
      <point x="521" y="934" type="line"/>
      <point x="520" y="1034"/>
      <point x="549" y="1066"/>
      <point x="632" y="1084" type="curve"/>
      <point x="632" y="1171" type="line"/>
      <point x="480" y="1174"/>
      <point x="416" y="1096"/>
    </contour>
    <contour>
      <point x="82" y="934" type="curve" smooth="yes"/>
      <point x="82" y="723" type="line"/>
      <point x="299" y="723" type="line"/>
      <point x="299" y="934" type="line"/>
      <point x="188" y="934" type="line"/>
      <point x="188" y="1033"/>
      <point x="216" y="1066"/>
      <point x="299" y="1084" type="curve"/>
      <point x="299" y="1171" type="line"/>
      <point x="147" y="1173"/>
      <point x="82" y="1096"/>
    </contour>
  </outline>
</glyph>
<glyph name="summation" format="1">
  <advance width="1209"/>
  <unicode hex="2211"/>
  <outline>
    <contour>
      <point x="153" y="1153" type="line"/>
      <point x="153" y="1037" type="line"/>
      <point x="269" y="1037" type="line"/>
      <point x="644" y="566" type="line"/>
      <point x="269" y="116" type="line"/>
      <point x="153" y="116" type="line"/>
      <point x="153" y="0" type="line"/>
      <point x="1085" y="0" type="line"/>
      <point x="1085" y="328" type="line"/>
      <point x="956" y="328" type="line"/>
      <point x="956" y="116" type="line"/>
      <point x="408" y="116" type="line"/>
      <point x="790" y="582" type="line"/>
      <point x="791" y="613" type="line"/>
      <point x="448" y="1037" type="line"/>
      <point x="954" y="1037" type="line"/>
      <point x="954" y="818" type="line"/>
      <point x="1085" y="818" type="line"/>
      <point x="1085" y="1153" type="line"/>
    </contour>
  </outline>
</glyph>
<glyph name="fi" format="1">
  <advance width="1149"/>
  <unicode hex="FB01"/>
  <outline>
    <contour>
      <point x="221" y="907" type="curve" smooth="yes"/>
      <point x="221" y="804" type="line"/>
      <point x="92" y="804" type="line"/>
      <point x="92" y="688" type="line"/>
      <point x="221" y="688" type="line"/>
      <point x="221" y="116" type="line"/>
      <point x="80" y="116" type="line"/>
      <point x="80" y="0" type="line"/>
      <point x="531" y="0" type="line"/>
      <point x="531" y="116" type="line"/>
      <point x="369" y="116" type="line"/>
      <point x="369" y="688" type="line"/>
      <point x="807" y="688" type="line"/>
      <point x="807" y="116" type="line"/>
      <point x="646" y="116" type="line"/>
      <point x="646" y="0" type="line"/>
      <point x="1098" y="0" type="line"/>
      <point x="1098" y="116" type="line"/>
      <point x="955" y="116" type="line"/>
      <point x="955" y="804" type="line"/>
      <point x="369" y="804" type="line"/>
      <point x="369" y="909" type="line" smooth="yes"/>
      <point x="369" y="1078"/>
      <point x="484" y="1142"/>
      <point x="622" y="1142" type="curve" smooth="yes"/>
      <point x="698" y="1142"/>
      <point x="768" y="1123"/>
      <point x="805" y="1091" type="curve"/>
      <point x="796" y="1077"/>
      <point x="791" y="1060"/>
      <point x="791" y="1041" type="curve" smooth="yes"/>
      <point x="791" y="988"/>
      <point x="828" y="954"/>
      <point x="886" y="954" type="curve" smooth="yes"/>
      <point x="938" y="954"/>
      <point x="971" y="988"/>
      <point x="971" y="1041" type="curve" smooth="yes"/>
      <point x="971" y="1168"/>
      <point x="792" y="1250"/>
      <point x="605" y="1250" type="curve" smooth="yes"/>
      <point x="398" y="1250"/>
      <point x="221" y="1151"/>
    </contour>
  </outline>
</glyph>
<glyph name="ffi" format="1">
  <advance width="1784"/>
  <outline>
    <contour>
      <point x="289" y="943" type="curve" smooth="yes"/>
      <point x="289" y="804" type="line"/>
      <point x="160" y="804" type="line"/>
      <point x="160" y="688" type="line"/>
      <point x="289" y="688" type="line"/>
      <point x="289" y="116" type="line"/>
      <point x="148" y="116" type="line"/>
      <point x="148" y="0" type="line"/>
      <point x="599" y="0" type="line"/>
      <point x="599" y="116" type="line"/>
      <point x="437" y="116" type="line"/>
      <point x="437" y="688" type="line"/>
      <point x="789" y="688" type="line"/>
      <point x="789" y="804" type="line"/>
      <point x="437" y="804" type="line"/>
      <point x="437" y="934" type="line" smooth="yes"/>
      <point x="437" y="1148"/>
      <point x="727" y="1128"/>
      <point x="934" y="990" type="curve"/>
      <point x="987" y="1082" type="line"/>
      <point x="751" y="1270"/>
      <point x="289" y="1264"/>
    </contour>
    <component base="fi" xOffset="635"/>
  </outline>
</glyph>
<glyph name="lc_descender_stem" format="1">
  <advance width="1067"/>
  <outline>
    <contour>
      <point x="28" y="804" type="line"/>
      <point x="28" y="688" type="line"/>
      <point x="200" y="688" type="line"/>
      <point x="200" y="-179" type="line"/>
      <point x="47" y="-179" type="line"/>
      <point x="47" y="-303" type="line"/>
      <point x="512" y="-303" type="line"/>
      <point x="512" y="-179" type="line"/>
      <point x="348" y="-179" type="line"/>
      <point x="347" y="569" type="line"/>
      <point x="332" y="804" type="line"/>
    </contour>
  </outline>
</glyph>
<glyph name="uc_main_stem" format="1">
  <advance width="657"/>
  <outline>
    <contour>
      <point x="115" y="1152" type="line"/>
      <point x="115" y="1036" type="line"/>
      <point x="249" y="1036" type="line"/>
      <point x="249" y="116" type="line"/>
      <point x="115" y="116" type="line"/>
      <point x="115" y="0" type="line"/>
      <point x="543" y="0" type="line"/>
      <point x="543" y="116" type="line"/>
      <point x="411" y="116" type="line"/>
      <point x="411" y="1036" type="line"/>
      <point x="543" y="1036" type="line"/>
      <point x="543" y="1152" type="line"/>
    </contour>
  </outline>
</glyph>
